<svg width="30" height="30" viewBox="0 0 30 30" fill="none" xmlns="http://www.w3.org/2000/svg">
  <path d="M27.2432 6.35103C27.0149 6.02855 26.7767 5.71408 26.5232 5.4113C23.7698 2.10716 19.6263 0 15.0002 0C14.9916 0 14.9849 0.00061541 14.9775 0.00061541C14.9726 0.00061541 14.9689 0 14.9639 0C14.9473 0 14.9301 0.00184623 14.9122 0.00184623C10.3213 0.0283089 6.21404 2.12932 3.47669 5.4113C3.22438 5.7147 2.98498 6.02855 2.75666 6.35103C1.02367 8.79728 0.000244141 11.7802 0.000244141 15C0.000244141 18.2192 1.02306 21.2033 2.75666 23.649C2.98498 23.9714 3.22438 24.2859 3.47669 24.5887C6.21342 27.8707 10.3207 29.9717 14.9122 29.9982C14.9301 29.9982 14.9473 30 14.9639 30C14.9689 30 14.9726 29.9994 14.9769 29.9994C14.9842 29.9994 14.991 30 14.9996 30C19.6263 30 23.7692 27.8935 26.5232 24.5893C26.7755 24.2865 27.0149 23.9714 27.2432 23.649C28.9762 21.2027 29.9996 18.2198 29.9996 14.9994C29.9996 11.7808 28.9762 8.79728 27.2432 6.35103ZM10.6154 1.95085C9.23693 3.28075 8.09104 5.22483 7.30147 7.55785C6.24358 7.16276 5.29154 6.68704 4.47058 6.14918C6.07988 4.23771 8.19627 2.76565 10.6154 1.95085ZM3.74809 7.09014C4.68105 7.71293 5.75925 8.25757 6.9513 8.7062C6.43682 10.5857 6.14142 12.6719 6.13034 14.8732H1.23353C1.25999 11.9777 2.19233 9.29823 3.74809 7.09014ZM1.27968 16.104H6.15434C6.23373 17.9466 6.51374 19.695 6.95007 21.2944C5.7574 21.743 4.67982 22.2877 3.74809 22.9111C2.36896 20.9535 1.47969 18.626 1.27968 16.104ZM4.47427 23.8484C5.29523 23.3117 6.24481 22.8372 7.30024 22.4422C8.08981 24.7758 9.23632 26.7186 10.6154 28.0485C8.19627 27.2343 6.08419 25.7592 4.47427 23.8484ZM14.3848 28.7249C11.8592 28.379 9.67941 25.7887 8.44367 22.0581C10.2253 21.524 12.242 21.2003 14.3848 21.1479V28.7249ZM14.3848 19.9184C12.125 19.9725 9.99512 20.3214 8.09842 20.9036C7.7101 19.4291 7.46147 17.8112 7.38701 16.1047H14.3848V19.9184ZM14.3848 14.8732H7.36116C7.37224 12.8061 7.64117 10.8534 8.10396 9.09822C9.99819 9.67855 12.1269 10.0281 14.3842 10.0816V14.8732H14.3848ZM14.3848 8.85206C12.2432 8.79975 10.2271 8.47727 8.44736 7.94309C9.68249 4.21433 11.8604 1.62161 14.3848 1.27513V8.85206ZM28.7651 14.8732H23.7975C23.7864 12.6811 23.4947 10.6035 22.984 8.73082C24.2025 8.27788 25.3034 7.72462 26.2518 7.09075C27.8069 9.29884 28.7387 11.9777 28.7651 14.8732ZM25.5281 6.15041C24.6905 6.69874 23.7169 7.18183 22.6338 7.58123C21.8368 5.21621 20.6743 3.24875 19.2743 1.91392C21.7384 2.72073 23.8935 4.2094 25.5281 6.15041ZM15.6157 1.28436C18.1136 1.67022 20.2651 4.25802 21.4873 7.96156C19.7241 8.48404 17.7308 8.80036 15.6157 8.85206V1.28436ZM15.6157 10.0823C17.8465 10.0293 19.9512 9.68717 21.8288 9.11914C22.2892 10.8694 22.5562 12.8147 22.5667 14.8738H15.6157V10.0823ZM15.6157 16.104H22.5415C22.467 17.8026 22.2196 19.4131 21.835 20.8833C19.9549 20.3134 17.8477 19.9719 15.6169 19.9184L15.6157 16.104ZM15.6157 28.7156V21.1486C17.732 21.2003 19.7254 21.5166 21.491 22.0391C20.2669 25.7438 18.113 28.3298 15.6157 28.7156ZM19.2743 28.0867C20.6743 26.7525 21.8393 24.7862 22.6362 22.4206C23.7169 22.8194 24.6893 23.3019 25.5256 23.849C23.8911 25.7894 21.7384 27.2793 19.2743 28.0867ZM26.2518 22.9111C25.3034 22.2772 24.2025 21.7227 22.9833 21.2704C23.4154 19.6777 23.6929 17.9374 23.7711 16.1047H28.7196C28.5196 18.626 27.6328 20.9541 26.2518 22.9111Z" fill="#004072" />
</svg>
