<svg width="51" height="50" viewBox="0 0 51 50" fill="none" xmlns="http://www.w3.org/2000/svg">
<g clip-path="url(#clip0_28289_244389)">
<path d="M25.5 50C39.3071 50 50.5 38.8071 50.5 25C50.5 11.1929 39.3071 0 25.5 0C11.6929 0 0.5 11.1929 0.5 25C0.5 38.8071 11.6929 50 25.5 50Z" fill="#F0F0F0"/>
<path d="M0.5 25.0001C0.5 11.193 11.693 0 25.5 0C39.307 0 50.5 11.193 50.5 25.0001" fill="#D80027"/>
<path d="M15.7172 13.0432C15.7172 9.40078 18.2771 6.35801 21.6955 5.61143C21.1701 5.49678 20.625 5.43457 20.065 5.43457C15.8627 5.43457 12.4563 8.84102 12.4563 13.0433C12.4563 17.2455 15.8627 20.652 20.065 20.652C20.6248 20.652 21.17 20.5898 21.6955 20.475C18.2771 19.7284 15.7172 16.6856 15.7172 13.0432Z" fill="#F0F0F0"/>
<path d="M25.4999 5.97852L26.0395 7.63916H27.7857L26.3729 8.66563L26.9126 10.3263L25.4999 9.3L24.0872 10.3263L24.6268 8.66563L23.2141 7.63916H24.9602L25.4999 5.97852Z" fill="#F0F0F0"/>
<path d="M21.264 9.23926L21.8035 10.9H23.5497L22.137 11.9264L22.6767 13.587L21.264 12.5607L19.8511 13.587L20.3908 11.9264L18.978 10.9H20.7242L21.264 9.23926Z" fill="#F0F0F0"/>
<path d="M29.7357 9.23926L30.2754 10.9H32.0215L30.6087 11.9264L31.1485 13.587L29.7357 12.5607L28.323 13.587L28.8626 11.9264L27.45 10.9H29.196L29.7357 9.23926Z" fill="#F0F0F0"/>
<path d="M28.1053 14.1299L28.645 15.7906H30.3911L28.9784 16.817L29.518 18.4776L28.1053 17.4514L26.6926 18.4776L27.2323 16.817L25.8196 15.7906H27.5656L28.1053 14.1299Z" fill="#F0F0F0"/>
<path d="M22.8945 14.1299L23.434 15.7906H25.1803L23.7675 16.817L24.3073 18.4776L22.8945 17.4514L21.4817 18.4776L22.0213 16.817L20.6086 15.7906H22.3548L22.8945 14.1299Z" fill="#F0F0F0"/>
</g>
<defs>
<clipPath id="clip0_28289_244389">
<rect width="50" height="50" fill="white" transform="translate(0.5)"/>
</clipPath>
</defs>
</svg>
