<svg width="51" height="50" viewBox="0 0 51 50" fill="none" xmlns="http://www.w3.org/2000/svg">
<g clip-path="url(#clip0_28289_244406)">
<path d="M50.5 25C50.5 38.807 39.307 50 25.5 50C11.693 50 0.5 38.807 0.5 25C9.08691 16.4131 16.3695 9.13047 25.5 0C39.307 0 50.5 11.193 50.5 25Z" fill="#D80027"/>
<path d="M25.5 25C25.5 11.193 25.5 9.56523 25.5 0C11.693 0 0.5 11.193 0.5 25H25.5Z" fill="#0052B4"/>
<path d="M22.2393 14.6305L19.186 16.0668L20.8118 19.0237L17.4965 18.3894L17.0763 21.7387L14.7671 19.2754L12.4577 21.7387L12.0377 18.3894L8.72227 19.0235L10.348 16.0666L7.29492 14.6305L10.3481 13.1944L8.72227 10.2374L12.0376 10.8717L12.4578 7.52246L14.7671 9.98574L17.0764 7.52246L17.4965 10.8717L20.8119 10.2374L19.186 13.1945L22.2393 14.6305Z" fill="#F0F0F0"/>
<path d="M14.7674 19.2838C17.3375 19.2838 19.421 17.2003 19.421 14.6302C19.421 12.0601 17.3375 9.97656 14.7674 9.97656C12.1973 9.97656 10.1138 12.0601 10.1138 14.6302C10.1138 17.2003 12.1973 19.2838 14.7674 19.2838Z" fill="#0052B4"/>
<path d="M14.7669 17.1107C13.3997 17.1107 12.2874 15.9983 12.2874 14.6311C12.2874 13.2638 13.3998 12.1514 14.7669 12.1514C16.1342 12.1514 17.2466 13.2638 17.2466 14.6311C17.2465 15.9983 16.134 17.1107 14.7669 17.1107Z" fill="#F0F0F0"/>
</g>
<defs>
<clipPath id="clip0_28289_244406">
<rect width="50" height="50" fill="white" transform="translate(0.5)"/>
</clipPath>
</defs>
</svg>
